<svg xmlns="http://www.w3.org/2000/svg" viewBox="0 0 24 24" width="100" height="100" fill="none" stroke="#2563eb" stroke-width="2" stroke-linecap="round" stroke-linejoin="round">
  <!-- Sóng tín hiệu bên trái -->
  <path d="M7 6 A 4 4 0 0 0 7 12" />
  <path d="M4 3 A 8 8 0 0 0 4 15" />
  
  <!-- Sóng tín hiệu bên phải -->
  <path d="M17 6 A 4 4 0 0 1 17 12" />
  <path d="M20 3 A 8 8 0 0 1 20 15" />
  
  <!-- Đỉnh tháp -->
  <circle cx="12" cy="9" r="1" />
  
  <!-- Thân tháp -->
  <path d="M12 10 L12 22" />
  <path d="M8 22 L11 10 L13 10 L16 22" />
  
  <!-- Các thanh ngang chịu lực -->
  <path d="M9 18 L15 18" />
  <path d="M10 14 L14 14" />
</svg>