<?xml version="1.0" encoding="UTF-8"?>
<svg xmlns="http://www.w3.org/2000/svg" xmlns:xlink="http://www.w3.org/1999/xlink" width="1080" height="1920" viewBox="0 0 1080 1920">
<defs>
<g>
<g id="glyph-0-0">
<path d="M 8.730469 -0.625 C 7.820312 -0.101562 6.6875 0.164062 5.332031 0.164062 C 3.832031 0.164062 2.644531 -0.253906 1.78125 -1.085938 C 0.914062 -1.914062 0.480469 -3.058594 0.480469 -4.519531 C 0.480469 -5.984375 0.953125 -7.179688 1.902344 -8.105469 C 2.847656 -9.03125 4.105469 -9.492188 5.675781 -9.492188 C 6.667969 -9.492188 7.539062 -9.355469 8.292969 -9.082031 L 8.292969 -7.109375 C 7.574219 -7.527344 6.691406 -7.734375 5.652344 -7.734375 C 4.777344 -7.734375 4.066406 -7.449219 3.519531 -6.882812 C 2.96875 -6.316406 2.695312 -5.5625 2.695312 -4.617188 C 2.695312 -3.65625 2.941406 -2.914062 3.433594 -2.390625 C 3.925781 -1.863281 4.59375 -1.601562 5.429688 -1.601562 C 5.933594 -1.601562 6.332031 -1.671875 6.628906 -1.816406 L 6.628906 -3.640625 L 4.757812 -3.640625 L 4.757812 -5.320312 L 8.730469 -5.320312 Z "/>
</g>
<g id="glyph-0-1">
<path d="M 5.214844 -4.8125 C 4.96875 -4.945312 4.679688 -5.011719 4.347656 -5.011719 C 3.902344 -5.011719 3.550781 -4.847656 3.300781 -4.523438 C 3.050781 -4.195312 2.921875 -3.746094 2.921875 -3.183594 L 2.921875 0 L 0.867188 0 L 0.867188 -6.667969 L 2.921875 -6.667969 L 2.921875 -5.429688 L 2.949219 -5.429688 C 3.273438 -6.332031 3.859375 -6.785156 4.707031 -6.785156 C 4.925781 -6.785156 5.09375 -6.757812 5.214844 -6.707031 Z "/>
</g>
<g id="glyph-0-2">
<path d="M 6.414062 0 L 4.464844 0 L 4.464844 -0.957031 L 4.441406 -0.957031 C 3.992188 -0.210938 3.332031 0.164062 2.453125 0.164062 C 1.808594 0.164062 1.296875 -0.0195312 0.925781 -0.386719 C 0.554688 -0.753906 0.371094 -1.242188 0.371094 -1.855469 C 0.371094 -3.148438 1.136719 -3.894531 2.667969 -4.09375 L 4.480469 -4.335938 C 4.480469 -5.066406 4.085938 -5.429688 3.292969 -5.429688 C 2.5 -5.429688 1.746094 -5.191406 1.027344 -4.71875 L 1.027344 -6.269531 C 1.316406 -6.417969 1.707031 -6.546875 2.203125 -6.660156 C 2.699219 -6.773438 3.152344 -6.828125 3.5625 -6.828125 C 5.460938 -6.828125 6.414062 -5.882812 6.414062 -3.984375 L 6.414062 0 M 4.480469 -2.707031 L 4.480469 -3.15625 L 3.269531 -3 C 2.601562 -2.914062 2.265625 -2.613281 2.265625 -2.097656 C 2.265625 -1.863281 2.347656 -1.667969 2.507812 -1.519531 C 2.671875 -1.371094 2.894531 -1.296875 3.171875 -1.296875 C 3.558594 -1.296875 3.871094 -1.429688 4.113281 -1.695312 C 4.359375 -1.960938 4.480469 -2.300781 4.480469 -2.707031 Z "/>
</g>
<g id="glyph-0-3">
<path d="M 7.214844 -6.667969 L 4.503906 0.535156 C 3.855469 2.265625 2.875 3.132812 1.5625 3.132812 C 1.0625 3.132812 0.652344 3.074219 0.332031 2.960938 L 0.332031 1.320312 C 0.605469 1.480469 0.902344 1.5625 1.222656 1.5625 C 1.753906 1.5625 2.121094 1.3125 2.332031 0.8125 L 2.683594 -0.0117188 L -0.0273438 -6.667969 L 2.253906 -6.667969 L 3.496094 -2.609375 C 3.574219 -2.359375 3.636719 -2.0625 3.679688 -1.71875 L 3.703125 -1.71875 C 3.742188 -1.96875 3.816406 -2.261719 3.917969 -2.597656 L 5.175781 -6.667969 Z "/>
</g>
</g>
</defs>
<g fill="rgb(100%, 100%, 100%)" fill-opacity="1">
<use xlink:href="#glyph-0-0" x="30" y="34.387695"/>
<use xlink:href="#glyph-0-1" x="39" y="34.387695"/>
<use xlink:href="#glyph-0-2" x="44" y="34.387695"/>
<use xlink:href="#glyph-0-3" x="51" y="34.387695"/>
</g>
</svg>
