<?xml version="1.0" encoding="UTF-8"?>
<svg xmlns="http://www.w3.org/2000/svg" xmlns:xlink="http://www.w3.org/1999/xlink" width="720" height="1280" viewBox="0 0 720 1280">
<defs>
<g>
<g id="glyph-0-0">
<path d="M 1.871094 -2.757812 L 1.871094 -2.691406 L 0.988281 0.0390625 L 0.71875 0.0390625 L 1.542969 -2.449219 L 0.65625 -2.449219 C 0.523438 -2.449219 0.429688 -2.429688 0.371094 -2.382812 C 0.3125 -2.339844 0.242188 -2.25 0.152344 -2.113281 L 0.0820312 -2.144531 C 0.167969 -2.363281 0.222656 -2.496094 0.246094 -2.546875 C 0.265625 -2.597656 0.292969 -2.667969 0.328125 -2.757812 Z "/>
</g>
<g id="glyph-0-1">
<path d="M 0.125 -0.046875 C 0.621094 -0.5625 0.957031 -0.941406 1.136719 -1.183594 C 1.3125 -1.425781 1.402344 -1.660156 1.402344 -1.886719 C 1.402344 -2.089844 1.347656 -2.242188 1.238281 -2.347656 C 1.128906 -2.453125 1 -2.503906 0.851562 -2.503906 C 0.664062 -2.503906 0.515625 -2.4375 0.398438 -2.300781 C 0.335938 -2.226562 0.273438 -2.113281 0.214844 -1.957031 L 0.128906 -1.976562 C 0.195312 -2.289062 0.3125 -2.503906 0.472656 -2.625 C 0.636719 -2.746094 0.808594 -2.808594 0.996094 -2.808594 C 1.222656 -2.808594 1.410156 -2.734375 1.550781 -2.589844 C 1.691406 -2.445312 1.765625 -2.269531 1.765625 -2.0625 C 1.765625 -1.839844 1.6875 -1.625 1.535156 -1.417969 C 1.382812 -1.210938 1.046875 -0.84375 0.535156 -0.316406 L 1.46875 -0.316406 C 1.597656 -0.316406 1.691406 -0.332031 1.742188 -0.363281 C 1.796875 -0.394531 1.855469 -0.472656 1.921875 -0.59375 L 1.976562 -0.566406 L 1.75 0 L 0.125 0 Z "/>
</g>
</g>
</defs>
<g fill="rgb(100%, 100%, 100%)" fill-opacity="1">
<use xlink:href="#glyph-0-0" x="30" y="23.125"/>
<use xlink:href="#glyph-0-1" x="32" y="23.125"/>
</g>
</svg>
