<?xml version="1.0" encoding="UTF-8"?>
<svg xmlns="http://www.w3.org/2000/svg" xmlns:xlink="http://www.w3.org/1999/xlink" width="1080" height="1920" viewBox="0 0 1080 1920">
<defs>
<g>
<g id="glyph-0-0">
<path d="M 0.296875 -0.105469 C 0.523438 -0.105469 0.667969 -0.136719 0.730469 -0.199219 C 0.792969 -0.261719 0.828125 -0.375 0.828125 -0.550781 L 0.828125 -2.261719 C 0.828125 -2.371094 0.8125 -2.449219 0.789062 -2.496094 C 0.761719 -2.542969 0.71875 -2.566406 0.648438 -2.566406 C 0.613281 -2.566406 0.558594 -2.554688 0.480469 -2.527344 C 0.433594 -2.511719 0.367188 -2.492188 0.285156 -2.457031 L 0.285156 -2.570312 L 1.410156 -3.054688 L 1.488281 -3.054688 L 1.488281 -0.523438 C 1.488281 -0.359375 1.511719 -0.25 1.566406 -0.191406 C 1.617188 -0.132812 1.75 -0.105469 1.964844 -0.105469 L 1.964844 0 L 0.296875 0 Z "/>
</g>
<g id="glyph-0-1">
<path d="M 1.164062 -1.320312 C 1.199219 -1.320312 1.238281 -1.328125 1.277344 -1.339844 C 1.320312 -1.355469 1.347656 -1.367188 1.355469 -1.378906 C 1.363281 -1.386719 1.371094 -1.4375 1.382812 -1.535156 C 1.394531 -1.628906 1.398438 -1.742188 1.398438 -1.871094 C 1.398438 -2.015625 1.394531 -2.148438 1.390625 -2.261719 C 1.382812 -2.378906 1.371094 -2.476562 1.355469 -2.5625 C 1.335938 -2.660156 1.3125 -2.738281 1.28125 -2.792969 C 1.230469 -2.886719 1.15625 -2.933594 1.0625 -2.933594 C 0.957031 -2.933594 0.882812 -2.878906 0.835938 -2.777344 C 0.789062 -2.675781 0.769531 -2.527344 0.769531 -2.328125 C 0.769531 -1.996094 0.796875 -1.742188 0.859375 -1.574219 C 0.921875 -1.40625 1.023438 -1.320312 1.164062 -1.320312 Z M 0.132812 -0.0507812 C 0.371094 -0.0976562 0.570312 -0.175781 0.730469 -0.28125 C 1.019531 -0.476562 1.210938 -0.773438 1.3125 -1.171875 L 1.289062 -1.1875 C 1.226562 -1.167969 1.179688 -1.152344 1.144531 -1.144531 C 1.074219 -1.128906 1 -1.121094 0.921875 -1.121094 C 0.6875 -1.121094 0.492188 -1.199219 0.339844 -1.359375 C 0.183594 -1.519531 0.105469 -1.738281 0.105469 -2.015625 C 0.105469 -2.335938 0.203125 -2.589844 0.394531 -2.777344 C 0.585938 -2.960938 0.808594 -3.054688 1.070312 -3.054688 C 1.371094 -3.054688 1.617188 -2.941406 1.808594 -2.710938 C 2 -2.480469 2.097656 -2.171875 2.097656 -1.792969 C 2.097656 -1.222656 1.878906 -0.765625 1.4375 -0.421875 C 1.070312 -0.128906 0.632812 0.03125 0.132812 0.0625 Z "/>
</g>
<g id="glyph-0-2">
<path d="M 1.3125 -1.878906 C 1.375 -1.964844 1.417969 -2.035156 1.4375 -2.082031 C 1.472656 -2.164062 1.492188 -2.261719 1.492188 -2.375 C 1.492188 -2.535156 1.460938 -2.667969 1.402344 -2.769531 C 1.34375 -2.875 1.238281 -2.925781 1.09375 -2.925781 C 0.988281 -2.925781 0.902344 -2.890625 0.835938 -2.820312 C 0.769531 -2.75 0.734375 -2.664062 0.734375 -2.5625 C 0.734375 -2.394531 0.820312 -2.238281 0.984375 -2.09375 C 1.082031 -2.003906 1.191406 -1.933594 1.3125 -1.878906 Z M 0.648438 -0.699219 C 0.648438 -0.574219 0.667969 -0.460938 0.707031 -0.363281 C 0.777344 -0.175781 0.902344 -0.0820312 1.082031 -0.0820312 C 1.183594 -0.0820312 1.273438 -0.121094 1.351562 -0.199219 C 1.425781 -0.273438 1.464844 -0.402344 1.464844 -0.582031 C 1.464844 -0.757812 1.40625 -0.910156 1.292969 -1.035156 C 1.222656 -1.113281 1.082031 -1.21875 0.871094 -1.355469 C 0.789062 -1.226562 0.734375 -1.128906 0.707031 -1.0625 C 0.667969 -0.957031 0.648438 -0.835938 0.648438 -0.699219 Z M 0.113281 -0.6875 C 0.113281 -0.914062 0.195312 -1.09375 0.355469 -1.226562 C 0.445312 -1.300781 0.570312 -1.363281 0.738281 -1.417969 L 0.738281 -1.460938 C 0.703125 -1.46875 0.636719 -1.515625 0.535156 -1.601562 C 0.429688 -1.683594 0.355469 -1.761719 0.304688 -1.832031 C 0.246094 -1.914062 0.207031 -1.992188 0.1875 -2.058594 C 0.167969 -2.128906 0.160156 -2.203125 0.160156 -2.28125 C 0.160156 -2.496094 0.25 -2.679688 0.4375 -2.828125 C 0.621094 -2.980469 0.863281 -3.054688 1.164062 -3.054688 C 1.441406 -3.054688 1.652344 -2.992188 1.800781 -2.867188 C 1.949219 -2.742188 2.023438 -2.59375 2.023438 -2.425781 C 2.023438 -2.25 1.949219 -2.101562 1.796875 -1.984375 C 1.714844 -1.921875 1.597656 -1.863281 1.449219 -1.808594 L 1.449219 -1.78125 C 1.660156 -1.628906 1.804688 -1.503906 1.882812 -1.410156 C 2.015625 -1.246094 2.082031 -1.058594 2.082031 -0.84375 C 2.082031 -0.558594 1.984375 -0.335938 1.789062 -0.175781 C 1.589844 -0.015625 1.339844 0.0625 1.035156 0.0625 C 0.808594 0.0625 0.597656 0 0.402344 -0.125 C 0.210938 -0.253906 0.113281 -0.441406 0.113281 -0.6875 Z "/>
</g>
</g>
</defs>
<g fill="rgb(100%, 100%, 100%)" fill-opacity="1">
<use xlink:href="#glyph-0-0" x="30" y="23.333008"/>
<use xlink:href="#glyph-0-1" x="32" y="23.333008"/>
<use xlink:href="#glyph-0-2" x="34" y="23.333008"/>
<use xlink:href="#glyph-0-0" x="36" y="23.333008"/>
<use xlink:href="#glyph-0-1" x="38" y="23.333008"/>
</g>
</svg>
