<?xml version="1.0" encoding="UTF-8"?>
<svg xmlns="http://www.w3.org/2000/svg" xmlns:xlink="http://www.w3.org/1999/xlink" width="1080" height="1920" viewBox="0 0 1080 1920">
<defs>
<g>
<g id="glyph-0-0">
<path d="M 2.074219 0 L 0.152344 0 L 0.152344 -0.191406 C 0.199219 -0.195312 0.261719 -0.199219 0.347656 -0.203125 C 0.433594 -0.210938 0.492188 -0.222656 0.523438 -0.234375 C 0.585938 -0.257812 0.625 -0.289062 0.648438 -0.332031 C 0.671875 -0.371094 0.679688 -0.421875 0.679688 -0.484375 L 0.679688 -2.9375 C 0.679688 -2.996094 0.671875 -3.042969 0.648438 -3.085938 C 0.628906 -3.128906 0.585938 -3.164062 0.523438 -3.1875 C 0.484375 -3.203125 0.429688 -3.222656 0.351562 -3.238281 C 0.273438 -3.253906 0.210938 -3.265625 0.152344 -3.273438 L 0.152344 -3.464844 L 2.074219 -3.464844 L 2.074219 -3.273438 C 2.027344 -3.269531 1.964844 -3.261719 1.890625 -3.253906 C 1.820312 -3.246094 1.757812 -3.230469 1.707031 -3.214844 C 1.644531 -3.195312 1.601562 -3.160156 1.578125 -3.117188 C 1.558594 -3.070312 1.546875 -3.019531 1.546875 -2.964844 L 1.546875 -0.511719 C 1.546875 -0.453125 1.558594 -0.402344 1.582031 -0.359375 C 1.601562 -0.320312 1.644531 -0.285156 1.707031 -0.257812 C 1.742188 -0.242188 1.796875 -0.230469 1.875 -0.214844 C 1.957031 -0.203125 2.023438 -0.195312 2.074219 -0.191406 Z "/>
</g>
<g id="glyph-0-1">
<path d="M 3.363281 0 L 1.898438 0 L 1.898438 -0.179688 C 1.929688 -0.179688 1.964844 -0.1875 2.007812 -0.191406 C 2.054688 -0.195312 2.085938 -0.203125 2.109375 -0.214844 C 2.144531 -0.234375 2.167969 -0.257812 2.183594 -0.292969 C 2.195312 -0.328125 2.203125 -0.378906 2.203125 -0.445312 L 2.203125 -1.585938 C 2.203125 -1.753906 2.175781 -1.878906 2.113281 -1.960938 C 2.050781 -2.046875 1.960938 -2.085938 1.84375 -2.085938 C 1.777344 -2.085938 1.714844 -2.078125 1.660156 -2.058594 C 1.605469 -2.039062 1.546875 -2.011719 1.496094 -1.972656 C 1.449219 -1.941406 1.410156 -1.90625 1.378906 -1.871094 C 1.351562 -1.839844 1.328125 -1.808594 1.308594 -1.78125 L 1.308594 -0.472656 C 1.308594 -0.414062 1.316406 -0.367188 1.332031 -0.328125 C 1.347656 -0.289062 1.375 -0.261719 1.414062 -0.242188 C 1.441406 -0.226562 1.472656 -0.214844 1.511719 -0.203125 C 1.550781 -0.191406 1.589844 -0.183594 1.625 -0.179688 L 1.625 0 L 0.140625 0 L 0.140625 -0.179688 C 0.183594 -0.179688 0.222656 -0.1875 0.265625 -0.191406 C 0.304688 -0.199219 0.34375 -0.203125 0.371094 -0.214844 C 0.421875 -0.234375 0.460938 -0.261719 0.476562 -0.296875 C 0.5 -0.335938 0.507812 -0.382812 0.507812 -0.445312 L 0.507812 -1.867188 C 0.507812 -1.914062 0.496094 -1.964844 0.46875 -2.015625 C 0.441406 -2.0625 0.410156 -2.101562 0.367188 -2.132812 C 0.335938 -2.152344 0.300781 -2.167969 0.253906 -2.183594 C 0.210938 -2.195312 0.160156 -2.203125 0.109375 -2.210938 L 0.109375 -2.386719 L 1.273438 -2.453125 L 1.308594 -2.414062 L 1.308594 -2.0625 L 1.320312 -2.0625 C 1.363281 -2.101562 1.417969 -2.148438 1.484375 -2.207031 C 1.550781 -2.265625 1.609375 -2.308594 1.664062 -2.347656 C 1.726562 -2.386719 1.804688 -2.417969 1.902344 -2.445312 C 2 -2.472656 2.105469 -2.488281 2.214844 -2.488281 C 2.480469 -2.488281 2.679688 -2.414062 2.8125 -2.261719 C 2.945312 -2.113281 3.011719 -1.910156 3.011719 -1.664062 L 3.011719 -0.464844 C 3.011719 -0.40625 3.019531 -0.359375 3.039062 -0.320312 C 3.054688 -0.285156 3.089844 -0.257812 3.136719 -0.238281 C 3.164062 -0.226562 3.195312 -0.214844 3.234375 -0.203125 C 3.273438 -0.191406 3.316406 -0.183594 3.363281 -0.179688 Z "/>
</g>
<g id="glyph-0-2">
<path d="M 3.117188 -1.1875 C 3.117188 -0.84375 3 -0.550781 2.769531 -0.304688 C 2.542969 -0.0585938 2.253906 0.0625 1.902344 0.0625 C 1.746094 0.0625 1.617188 0.046875 1.519531 0.015625 C 1.421875 -0.015625 1.34375 -0.0546875 1.277344 -0.101562 L 1.257812 -0.101562 L 1.257812 0.585938 C 1.257812 0.644531 1.273438 0.691406 1.296875 0.734375 C 1.324219 0.777344 1.359375 0.808594 1.402344 0.828125 C 1.449219 0.84375 1.511719 0.863281 1.589844 0.875 C 1.671875 0.890625 1.738281 0.898438 1.792969 0.902344 L 1.792969 1.085938 L 0.0273438 1.085938 L 0.0273438 0.902344 C 0.0664062 0.898438 0.117188 0.894531 0.179688 0.886719 C 0.242188 0.875 0.289062 0.867188 0.320312 0.855469 C 0.371094 0.839844 0.40625 0.808594 0.425781 0.765625 C 0.445312 0.722656 0.453125 0.671875 0.453125 0.617188 L 0.453125 -1.878906 C 0.449219 -1.933594 0.4375 -1.980469 0.417969 -2.023438 C 0.394531 -2.0625 0.363281 -2.097656 0.320312 -2.128906 C 0.289062 -2.148438 0.242188 -2.167969 0.191406 -2.179688 C 0.136719 -2.195312 0.0820312 -2.203125 0.03125 -2.210938 L 0.03125 -2.386719 L 1.222656 -2.453125 L 1.257812 -2.417969 L 1.257812 -2.148438 L 1.277344 -2.144531 C 1.386719 -2.253906 1.503906 -2.335938 1.636719 -2.398438 C 1.765625 -2.457031 1.898438 -2.488281 2.023438 -2.488281 C 2.363281 -2.488281 2.628906 -2.367188 2.824219 -2.128906 C 3.019531 -1.890625 3.117188 -1.578125 3.117188 -1.1875 M 2.238281 -1.179688 C 2.238281 -1.300781 2.230469 -1.417969 2.210938 -1.53125 C 2.195312 -1.640625 2.164062 -1.742188 2.117188 -1.828125 C 2.074219 -1.917969 2.015625 -1.988281 1.941406 -2.039062 C 1.871094 -2.089844 1.78125 -2.117188 1.679688 -2.117188 C 1.574219 -2.117188 1.488281 -2.097656 1.425781 -2.0625 C 1.363281 -2.023438 1.308594 -1.976562 1.257812 -1.917969 L 1.257812 -0.535156 C 1.269531 -0.503906 1.289062 -0.460938 1.316406 -0.410156 C 1.34375 -0.359375 1.371094 -0.316406 1.398438 -0.285156 C 1.4375 -0.242188 1.484375 -0.210938 1.539062 -0.1875 C 1.589844 -0.167969 1.644531 -0.15625 1.707031 -0.15625 C 1.867188 -0.15625 1.996094 -0.242188 2.09375 -0.417969 C 2.191406 -0.589844 2.238281 -0.84375 2.238281 -1.179688 Z "/>
</g>
<g id="glyph-0-3">
<path d="M 3.324219 -0.0507812 L 2.160156 0.0195312 L 2.125 -0.015625 L 2.125 -0.335938 L 2.109375 -0.335938 C 2.054688 -0.285156 2 -0.234375 1.949219 -0.1875 C 1.894531 -0.140625 1.832031 -0.09375 1.757812 -0.0546875 C 1.675781 -0.0117188 1.597656 0.0195312 1.523438 0.0429688 C 1.449219 0.0625 1.339844 0.0742188 1.199219 0.0742188 C 0.953125 0.0742188 0.765625 0 0.636719 -0.148438 C 0.503906 -0.296875 0.4375 -0.507812 0.4375 -0.777344 L 0.4375 -1.875 C 0.4375 -1.9375 0.425781 -1.988281 0.402344 -2.03125 C 0.378906 -2.070312 0.347656 -2.105469 0.304688 -2.136719 C 0.273438 -2.160156 0.230469 -2.179688 0.179688 -2.1875 C 0.128906 -2.199219 0.0820312 -2.207031 0.0390625 -2.210938 L 0.0390625 -2.386719 L 1.21875 -2.453125 L 1.246094 -2.414062 L 1.246094 -0.789062 C 1.246094 -0.625 1.277344 -0.5 1.339844 -0.421875 C 1.40625 -0.339844 1.492188 -0.300781 1.605469 -0.300781 C 1.722656 -0.300781 1.824219 -0.332031 1.917969 -0.390625 C 2.007812 -0.449219 2.078125 -0.515625 2.117188 -0.582031 L 2.117188 -1.898438 C 2.117188 -1.953125 2.109375 -2.003906 2.085938 -2.046875 C 2.066406 -2.09375 2.035156 -2.128906 1.996094 -2.15625 C 1.964844 -2.175781 1.921875 -2.1875 1.867188 -2.195312 C 1.8125 -2.203125 1.757812 -2.207031 1.703125 -2.210938 L 1.703125 -2.386719 L 2.886719 -2.453125 L 2.925781 -2.414062 L 2.925781 -0.53125 C 2.925781 -0.472656 2.9375 -0.425781 2.957031 -0.382812 C 2.980469 -0.34375 3.015625 -0.3125 3.058594 -0.28125 C 3.089844 -0.265625 3.128906 -0.25 3.179688 -0.242188 C 3.226562 -0.234375 3.277344 -0.230469 3.324219 -0.230469 Z "/>
</g>
<g id="glyph-0-4">
<path d="M 1.957031 -0.113281 C 1.855469 -0.0664062 1.742188 -0.0273438 1.625 0.0117188 C 1.503906 0.046875 1.359375 0.0664062 1.1875 0.0664062 C 0.933594 0.0664062 0.746094 0.00390625 0.625 -0.121094 C 0.5 -0.242188 0.4375 -0.417969 0.4375 -0.648438 L 0.4375 -2.144531 L 0 -2.144531 L 0 -2.414062 L 0.449219 -2.414062 L 0.449219 -3.152344 L 1.242188 -3.152344 L 1.242188 -2.414062 L 1.925781 -2.414062 L 1.925781 -2.144531 L 1.246094 -2.144531 L 1.246094 -0.808594 C 1.246094 -0.621094 1.273438 -0.484375 1.324219 -0.40625 C 1.378906 -0.324219 1.472656 -0.285156 1.609375 -0.285156 C 1.652344 -0.285156 1.714844 -0.289062 1.792969 -0.296875 C 1.871094 -0.300781 1.925781 -0.308594 1.957031 -0.316406 Z "/>
</g>
</g>
</defs>
<g fill="rgb(100%, 100%, 100%)" fill-opacity="1">
<use xlink:href="#glyph-0-0" x="30" y="24.584961"/>
<use xlink:href="#glyph-0-1" x="32" y="24.584961"/>
<use xlink:href="#glyph-0-2" x="35" y="24.584961"/>
<use xlink:href="#glyph-0-3" x="38" y="24.584961"/>
<use xlink:href="#glyph-0-4" x="41" y="24.584961"/>
</g>
</svg>
