<?xml version="1.0" encoding="UTF-8"?>
<svg xmlns="http://www.w3.org/2000/svg" xmlns:xlink="http://www.w3.org/1999/xlink" width="1080" height="1920" viewBox="0 0 1080 1920">
<defs>
<g>
<g id="glyph-0-0">
<path d="M 3.636719 -0.261719 C 3.257812 -0.0429688 2.785156 0.0664062 2.222656 0.0664062 C 1.597656 0.0664062 1.101562 -0.105469 0.742188 -0.453125 C 0.382812 -0.796875 0.199219 -1.273438 0.199219 -1.882812 C 0.199219 -2.492188 0.398438 -2.992188 0.792969 -3.378906 C 1.1875 -3.761719 1.710938 -3.957031 2.367188 -3.957031 C 2.777344 -3.957031 3.140625 -3.898438 3.457031 -3.785156 L 3.457031 -2.960938 C 3.15625 -3.136719 2.789062 -3.222656 2.355469 -3.222656 C 1.992188 -3.222656 1.695312 -3.105469 1.464844 -2.867188 C 1.238281 -2.632812 1.125 -2.316406 1.125 -1.921875 C 1.125 -1.523438 1.226562 -1.214844 1.429688 -0.996094 C 1.636719 -0.777344 1.914062 -0.667969 2.261719 -0.667969 C 2.472656 -0.667969 2.640625 -0.695312 2.761719 -0.757812 L 2.761719 -1.515625 L 1.984375 -1.515625 L 1.984375 -2.214844 L 3.636719 -2.214844 Z "/>
</g>
<g id="glyph-0-1">
<path d="M 1.320312 0 L 0.445312 0 L 0.445312 -3.890625 L 1.320312 -3.890625 Z "/>
</g>
<g id="glyph-0-2">
<path d="M 3.867188 0 L 2.910156 0 L 2.632812 -0.867188 L 1.25 -0.867188 L 0.976562 0 L 0.0273438 0 L 1.441406 -3.890625 L 2.480469 -3.890625 L 3.867188 0 M 2.433594 -1.539062 L 2.015625 -2.847656 C 1.984375 -2.945312 1.964844 -3.058594 1.949219 -3.195312 L 1.929688 -3.195312 C 1.917969 -3.082031 1.898438 -2.96875 1.859375 -2.855469 L 1.4375 -1.539062 L 2.433594 -1.539062 M 2.8125 -5.128906 L 1.960938 -4.25 L 1.34375 -4.25 L 2.046875 -5.128906 Z "/>
</g>
<g id="glyph-0-3">
</g>
<g id="glyph-0-4">
<path d="M 3.175781 -3.175781 L 2.066406 -3.175781 L 2.066406 0 L 1.1875 0 L 1.1875 -3.175781 L 0.0859375 -3.175781 L 0.0859375 -3.890625 L 3.175781 -3.890625 Z "/>
</g>
<g id="glyph-0-5">
<path d="M 3.707031 0 L 2.703125 0 L 2.097656 -1 C 2.050781 -1.078125 2.007812 -1.144531 1.96875 -1.203125 C 1.925781 -1.265625 1.882812 -1.316406 1.839844 -1.359375 C 1.796875 -1.398438 1.753906 -1.433594 1.707031 -1.457031 C 1.660156 -1.476562 1.613281 -1.488281 1.558594 -1.488281 L 1.320312 -1.488281 L 1.320312 0 L 0.445312 0 L 0.445312 -3.890625 L 1.832031 -3.890625 C 2.777344 -3.890625 3.25 -3.539062 3.25 -2.832031 C 3.25 -2.695312 3.230469 -2.570312 3.1875 -2.457031 C 3.144531 -2.339844 3.085938 -2.238281 3.011719 -2.144531 C 2.933594 -2.054688 2.84375 -1.972656 2.734375 -1.90625 C 2.628906 -1.839844 2.507812 -1.789062 2.375 -1.75 L 2.375 -1.738281 C 2.433594 -1.722656 2.492188 -1.691406 2.542969 -1.652344 C 2.597656 -1.609375 2.652344 -1.5625 2.703125 -1.507812 C 2.753906 -1.453125 2.800781 -1.394531 2.847656 -1.332031 C 2.894531 -1.269531 2.933594 -1.210938 2.972656 -1.148438 L 3.707031 0 M 1.320312 -3.234375 L 1.320312 -2.152344 L 1.699219 -2.152344 C 1.890625 -2.152344 2.039062 -2.207031 2.152344 -2.3125 C 2.269531 -2.425781 2.328125 -2.5625 2.328125 -2.722656 C 2.328125 -3.0625 2.125 -3.234375 1.71875 -3.234375 Z "/>
</g>
<g id="glyph-0-6">
<path d="M 1.320312 0 L 0.445312 0 L 0.445312 -3.890625 L 1.320312 -3.890625 L 1.320312 0 M 0.886719 1.0625 C 0.765625 1.0625 0.664062 1.023438 0.585938 0.953125 C 0.507812 0.878906 0.46875 0.792969 0.46875 0.6875 C 0.46875 0.582031 0.507812 0.492188 0.589844 0.425781 C 0.667969 0.355469 0.769531 0.324219 0.886719 0.324219 C 1.007812 0.324219 1.105469 0.355469 1.183594 0.425781 C 1.261719 0.496094 1.300781 0.582031 1.300781 0.6875 C 1.300781 0.796875 1.261719 0.882812 1.183594 0.953125 C 1.105469 1.027344 1.007812 1.0625 0.886719 1.0625 Z "/>
</g>
<g id="glyph-0-7">
<path d="M 2.003906 0.882812 L 1.304688 0.882812 C 0.722656 0.242188 0.429688 -0.550781 0.429688 -1.488281 C 0.429688 -2.394531 0.722656 -3.195312 1.304688 -3.890625 L 2 -3.890625 C 1.453125 -3.164062 1.175781 -2.363281 1.175781 -1.488281 C 1.175781 -0.617188 1.453125 0.175781 2.003906 0.882812 Z "/>
</g>
<g id="glyph-0-8">
<path d="M 4.878906 0 L 4.011719 0 L 4.011719 -2.328125 C 4.011719 -2.578125 4.023438 -2.855469 4.042969 -3.160156 L 4.023438 -3.160156 C 3.976562 -2.921875 3.9375 -2.75 3.902344 -2.644531 L 2.988281 0 L 2.273438 0 L 1.34375 -2.617188 C 1.320312 -2.6875 1.28125 -2.871094 1.222656 -3.160156 L 1.199219 -3.160156 C 1.222656 -2.777344 1.234375 -2.441406 1.234375 -2.152344 L 1.234375 0 L 0.445312 0 L 0.445312 -3.890625 L 1.726562 -3.890625 L 2.523438 -1.585938 C 2.585938 -1.398438 2.632812 -1.214844 2.660156 -1.027344 L 2.675781 -1.027344 C 2.726562 -1.242188 2.777344 -1.429688 2.832031 -1.589844 L 3.628906 -3.890625 L 4.878906 -3.890625 Z "/>
</g>
<g id="glyph-0-9">
<path d="M 3.867188 0 L 2.910156 0 L 2.632812 -0.867188 L 1.25 -0.867188 L 0.976562 0 L 0.0273438 0 L 1.441406 -3.890625 L 2.480469 -3.890625 L 3.867188 0 M 2.433594 -1.539062 L 2.015625 -2.847656 C 1.984375 -2.945312 1.964844 -3.058594 1.949219 -3.195312 L 1.929688 -3.195312 C 1.917969 -3.082031 1.898438 -2.96875 1.859375 -2.855469 L 1.4375 -1.539062 L 2.433594 -1.539062 M 2.484375 -4.25 L 1.871094 -4.25 L 1.015625 -5.128906 L 1.78125 -5.128906 Z "/>
</g>
<g id="glyph-0-10">
<path d="M 3.617188 -1.683594 C 3.617188 -0.515625 3.070312 0.0664062 1.984375 0.0664062 C 0.925781 0.0664062 0.398438 -0.503906 0.398438 -1.644531 L 0.398438 -3.890625 L 1.277344 -3.890625 L 1.277344 -1.632812 C 1.277344 -1.003906 1.523438 -0.6875 2.015625 -0.6875 C 2.5 -0.6875 2.738281 -0.992188 2.738281 -1.601562 L 2.738281 -3.890625 L 3.617188 -3.890625 Z "/>
</g>
<g id="glyph-0-11">
<path d="M 0.742188 0.882812 L 0.0507812 0.882812 C 0.601562 0.179688 0.878906 -0.613281 0.878906 -1.488281 C 0.878906 -2.359375 0.601562 -3.160156 0.0507812 -3.890625 L 0.75 -3.890625 C 1.335938 -3.195312 1.628906 -2.394531 1.628906 -1.488281 C 1.628906 -0.558594 1.332031 0.234375 0.742188 0.882812 Z "/>
</g>
</g>
</defs>
<g fill="rgb(100%, 100%, 100%)" fill-opacity="1">
<use xlink:href="#glyph-0-0" x="30" y="25.995117"/>
<use xlink:href="#glyph-0-1" x="34" y="25.995117"/>
<use xlink:href="#glyph-0-2" x="36" y="25.995117"/>
<use xlink:href="#glyph-0-3" x="40" y="25.995117"/>
<use xlink:href="#glyph-0-4" x="42" y="25.995117"/>
<use xlink:href="#glyph-0-5" x="45" y="25.995117"/>
<use xlink:href="#glyph-0-6" x="49" y="25.995117"/>
<use xlink:href="#glyph-0-3" x="51" y="25.995117"/>
<use xlink:href="#glyph-0-7" x="53" y="25.995117"/>
<use xlink:href="#glyph-0-8" x="55" y="25.995117"/>
<use xlink:href="#glyph-0-9" x="60" y="25.995117"/>
<use xlink:href="#glyph-0-10" x="64" y="25.995117"/>
<use xlink:href="#glyph-0-11" x="68" y="25.995117"/>
</g>
</svg>
