<?xml version="1.0" encoding="UTF-8"?>
<svg xmlns="http://www.w3.org/2000/svg" xmlns:xlink="http://www.w3.org/1999/xlink" width="1080" height="1920" viewBox="0 0 1080 1920">
<defs>
<g>
<g id="glyph-0-0">
<path d="M 4.148438 -3.273438 C 4.101562 -3.269531 4.039062 -3.261719 3.953125 -3.246094 C 3.867188 -3.234375 3.792969 -3.203125 3.722656 -3.152344 C 3.664062 -3.109375 3.621094 -3.03125 3.59375 -2.925781 C 3.570312 -2.820312 3.558594 -2.664062 3.558594 -2.457031 L 3.558594 0.0195312 L 3.121094 0.0195312 L 0.964844 -2.660156 L 0.964844 -1.03125 C 0.964844 -0.832031 0.976562 -0.675781 1.003906 -0.574219 C 1.03125 -0.46875 1.074219 -0.390625 1.136719 -0.34375 C 1.179688 -0.304688 1.25 -0.273438 1.34375 -0.246094 C 1.441406 -0.21875 1.519531 -0.199219 1.574219 -0.191406 L 1.574219 0 L 0.0859375 0 L 0.0859375 -0.191406 C 0.148438 -0.195312 0.222656 -0.207031 0.304688 -0.226562 C 0.386719 -0.246094 0.453125 -0.273438 0.511719 -0.3125 C 0.574219 -0.359375 0.617188 -0.429688 0.640625 -0.527344 C 0.664062 -0.621094 0.675781 -0.78125 0.675781 -1.007812 L 0.675781 -2.648438 C 0.675781 -2.726562 0.664062 -2.804688 0.636719 -2.878906 C 0.613281 -2.949219 0.574219 -3.011719 0.519531 -3.0625 C 0.464844 -3.121094 0.398438 -3.164062 0.324219 -3.195312 C 0.25 -3.226562 0.164062 -3.25 0.0703125 -3.269531 L 0.0703125 -3.464844 L 1.375 -3.464844 L 3.269531 -1.121094 L 3.269531 -2.433594 C 3.269531 -2.640625 3.253906 -2.796875 3.226562 -2.898438 C 3.199219 -3 3.15625 -3.074219 3.09375 -3.121094 C 3.046875 -3.160156 2.976562 -3.191406 2.886719 -3.21875 C 2.792969 -3.246094 2.71875 -3.265625 2.660156 -3.273438 L 2.660156 -3.464844 L 4.148438 -3.464844 Z "/>
</g>
<g id="glyph-0-1">
<path d="M 3.367188 -3.078125 C 3.539062 -2.921875 3.675781 -2.734375 3.777344 -2.511719 C 3.875 -2.289062 3.925781 -2.039062 3.925781 -1.753906 C 3.925781 -1.503906 3.882812 -1.261719 3.796875 -1.035156 C 3.714844 -0.808594 3.59375 -0.609375 3.433594 -0.445312 C 3.265625 -0.277344 3.066406 -0.144531 2.84375 -0.046875 C 2.617188 0.046875 2.347656 0.09375 2.035156 0.09375 C 1.78125 0.09375 1.542969 0.0546875 1.320312 -0.03125 C 1.09375 -0.113281 0.894531 -0.234375 0.726562 -0.390625 C 0.554688 -0.546875 0.421875 -0.734375 0.320312 -0.953125 C 0.222656 -1.175781 0.171875 -1.421875 0.171875 -1.695312 C 0.171875 -1.976562 0.222656 -2.234375 0.320312 -2.464844 C 0.414062 -2.695312 0.546875 -2.890625 0.71875 -3.054688 C 0.886719 -3.21875 1.085938 -3.34375 1.316406 -3.429688 C 1.546875 -3.515625 1.789062 -3.558594 2.050781 -3.558594 C 2.308594 -3.558594 2.550781 -3.515625 2.78125 -3.433594 C 3.007812 -3.347656 3.203125 -3.230469 3.367188 -3.078125 M 2.742188 -0.597656 C 2.816406 -0.746094 2.867188 -0.914062 2.898438 -1.101562 C 2.933594 -1.289062 2.949219 -1.5 2.949219 -1.738281 C 2.949219 -1.9375 2.933594 -2.132812 2.90625 -2.324219 C 2.878906 -2.515625 2.828125 -2.683594 2.761719 -2.832031 C 2.691406 -2.980469 2.597656 -3.097656 2.484375 -3.1875 C 2.367188 -3.277344 2.222656 -3.324219 2.050781 -3.324219 C 1.757812 -3.324219 1.53125 -3.183594 1.378906 -2.902344 C 1.226562 -2.625 1.148438 -2.230469 1.148438 -1.71875 C 1.148438 -1.5 1.167969 -1.296875 1.199219 -1.105469 C 1.234375 -0.914062 1.285156 -0.746094 1.359375 -0.601562 C 1.429688 -0.457031 1.523438 -0.34375 1.636719 -0.261719 C 1.75 -0.183594 1.886719 -0.140625 2.050781 -0.140625 C 2.210938 -0.140625 2.351562 -0.183594 2.464844 -0.265625 C 2.582031 -0.34375 2.671875 -0.457031 2.742188 -0.597656 Z "/>
</g>
<g id="glyph-0-2">
<path d="M 4.144531 0 L 2.816406 0 C 2.585938 -0.351562 2.394531 -0.632812 2.242188 -0.839844 C 2.09375 -1.046875 1.902344 -1.289062 1.675781 -1.5625 L 1.542969 -1.5625 L 1.542969 -0.511719 C 1.542969 -0.453125 1.554688 -0.402344 1.574219 -0.359375 C 1.597656 -0.320312 1.640625 -0.285156 1.703125 -0.257812 C 1.734375 -0.246094 1.78125 -0.230469 1.847656 -0.21875 C 1.914062 -0.203125 1.96875 -0.195312 2.015625 -0.191406 L 2.015625 0 L 0.167969 0 L 0.167969 -0.191406 C 0.214844 -0.195312 0.277344 -0.203125 0.355469 -0.210938 C 0.433594 -0.21875 0.488281 -0.230469 0.519531 -0.242188 C 0.582031 -0.269531 0.625 -0.304688 0.644531 -0.34375 C 0.664062 -0.382812 0.675781 -0.433594 0.675781 -0.496094 L 0.675781 -2.9375 C 0.675781 -3 0.667969 -3.046875 0.648438 -3.085938 C 0.632812 -3.125 0.589844 -3.160156 0.519531 -3.1875 C 0.46875 -3.210938 0.40625 -3.226562 0.335938 -3.242188 C 0.265625 -3.257812 0.210938 -3.265625 0.167969 -3.273438 L 0.167969 -3.464844 L 2.113281 -3.464844 C 2.546875 -3.464844 2.875 -3.394531 3.101562 -3.261719 C 3.328125 -3.125 3.441406 -2.917969 3.441406 -2.644531 C 3.441406 -2.402344 3.371094 -2.207031 3.230469 -2.058594 C 3.09375 -1.910156 2.878906 -1.796875 2.59375 -1.714844 C 2.707031 -1.570312 2.835938 -1.40625 2.980469 -1.214844 C 3.128906 -1.027344 3.28125 -0.835938 3.441406 -0.636719 C 3.492188 -0.574219 3.5625 -0.496094 3.648438 -0.402344 C 3.734375 -0.3125 3.8125 -0.253906 3.878906 -0.234375 C 3.917969 -0.222656 3.964844 -0.214844 4.023438 -0.203125 C 4.078125 -0.195312 4.121094 -0.191406 4.144531 -0.191406 L 4.144531 0 M 2.484375 -2.574219 C 2.484375 -2.808594 2.417969 -2.976562 2.289062 -3.082031 C 2.160156 -3.1875 1.976562 -3.242188 1.734375 -3.242188 L 1.542969 -3.242188 L 1.542969 -1.792969 L 1.726562 -1.792969 C 1.96875 -1.792969 2.152344 -1.855469 2.285156 -1.980469 C 2.417969 -2.105469 2.484375 -2.304688 2.484375 -2.574219 Z "/>
</g>
<g id="glyph-0-3">
<path d="M 4.929688 0 L 3.050781 0 L 3.050781 -0.191406 C 3.105469 -0.195312 3.175781 -0.203125 3.253906 -0.214844 C 3.335938 -0.226562 3.390625 -0.238281 3.421875 -0.25 C 3.480469 -0.277344 3.523438 -0.308594 3.550781 -0.351562 C 3.574219 -0.394531 3.589844 -0.449219 3.589844 -0.511719 L 3.589844 -3.101562 L 2.398438 -0.0546875 L 2.089844 -0.0546875 C 2.074219 -0.109375 2.039062 -0.214844 1.980469 -0.375 C 1.921875 -0.535156 1.875 -0.664062 1.839844 -0.757812 L 0.964844 -3.140625 L 0.964844 -1.03125 C 0.964844 -0.832031 0.976562 -0.675781 1.003906 -0.574219 C 1.03125 -0.46875 1.074219 -0.390625 1.136719 -0.34375 C 1.175781 -0.308594 1.25 -0.273438 1.355469 -0.242188 C 1.457031 -0.214844 1.53125 -0.195312 1.574219 -0.191406 L 1.574219 0 L 0.0859375 0 L 0.0859375 -0.191406 C 0.125 -0.195312 0.191406 -0.207031 0.285156 -0.222656 C 0.375 -0.242188 0.453125 -0.269531 0.511719 -0.3125 C 0.574219 -0.359375 0.621094 -0.433594 0.640625 -0.542969 C 0.664062 -0.652344 0.675781 -0.804688 0.675781 -1.007812 L 0.675781 -2.722656 C 0.675781 -2.828125 0.664062 -2.914062 0.636719 -2.980469 C 0.609375 -3.050781 0.570312 -3.105469 0.519531 -3.148438 C 0.453125 -3.199219 0.386719 -3.230469 0.320312 -3.246094 C 0.25 -3.257812 0.183594 -3.269531 0.113281 -3.273438 L 0.113281 -3.464844 L 1.707031 -3.464844 L 2.5625 -1.183594 L 3.28125 -3.035156 C 3.308594 -3.101562 3.332031 -3.183594 3.351562 -3.277344 C 3.375 -3.375 3.386719 -3.433594 3.390625 -3.464844 L 4.925781 -3.464844 L 4.925781 -3.273438 C 4.871094 -3.269531 4.816406 -3.265625 4.761719 -3.253906 C 4.703125 -3.246094 4.648438 -3.230469 4.597656 -3.214844 C 4.535156 -3.195312 4.492188 -3.160156 4.472656 -3.117188 C 4.449219 -3.070312 4.441406 -3.019531 4.441406 -2.964844 L 4.441406 -0.511719 C 4.441406 -0.453125 4.449219 -0.402344 4.472656 -0.363281 C 4.492188 -0.324219 4.535156 -0.289062 4.597656 -0.257812 C 4.628906 -0.242188 4.683594 -0.230469 4.757812 -0.21875 C 4.832031 -0.203125 4.886719 -0.195312 4.929688 -0.191406 Z "/>
</g>
<g id="glyph-0-4">
</g>
<g id="glyph-0-5">
<path d="M 3.429688 -1.109375 L 3.359375 0 L 0.167969 0 L 0.167969 -0.191406 C 0.226562 -0.195312 0.292969 -0.203125 0.367188 -0.214844 C 0.445312 -0.222656 0.496094 -0.234375 0.519531 -0.242188 C 0.578125 -0.265625 0.621094 -0.296875 0.640625 -0.339844 C 0.664062 -0.378906 0.675781 -0.433594 0.675781 -0.496094 L 0.675781 -2.9375 C 0.675781 -3 0.667969 -3.046875 0.648438 -3.085938 C 0.632812 -3.121094 0.589844 -3.15625 0.519531 -3.1875 C 0.46875 -3.210938 0.410156 -3.230469 0.339844 -3.242188 C 0.265625 -3.257812 0.210938 -3.265625 0.167969 -3.273438 L 0.167969 -3.464844 L 2.070312 -3.464844 L 2.070312 -3.273438 C 2.019531 -3.269531 1.957031 -3.261719 1.886719 -3.253906 C 1.816406 -3.246094 1.753906 -3.230469 1.703125 -3.214844 C 1.636719 -3.195312 1.597656 -3.160156 1.574219 -3.117188 C 1.554688 -3.070312 1.542969 -3.019531 1.542969 -2.964844 L 1.542969 -0.6875 C 1.542969 -0.578125 1.550781 -0.492188 1.566406 -0.433594 C 1.578125 -0.371094 1.609375 -0.324219 1.648438 -0.296875 C 1.691406 -0.265625 1.75 -0.246094 1.828125 -0.234375 C 1.902344 -0.226562 2.007812 -0.222656 2.140625 -0.222656 C 2.269531 -0.222656 2.398438 -0.230469 2.519531 -0.246094 C 2.644531 -0.261719 2.730469 -0.292969 2.785156 -0.347656 C 2.867188 -0.429688 2.953125 -0.546875 3.039062 -0.695312 C 3.128906 -0.847656 3.199219 -0.984375 3.25 -1.109375 Z "/>
</g>
<g id="glyph-0-6">
<path d="M 3.929688 0 L 2.039062 0 L 2.039062 -0.191406 C 2.128906 -0.195312 2.230469 -0.210938 2.351562 -0.238281 C 2.46875 -0.261719 2.527344 -0.292969 2.527344 -0.332031 C 2.527344 -0.34375 2.527344 -0.359375 2.523438 -0.375 C 2.523438 -0.390625 2.515625 -0.414062 2.503906 -0.441406 L 2.207031 -1.160156 L 1.011719 -1.160156 C 0.984375 -1.09375 0.953125 -1.015625 0.921875 -0.925781 C 0.886719 -0.835938 0.859375 -0.757812 0.835938 -0.6875 C 0.804688 -0.59375 0.785156 -0.527344 0.78125 -0.488281 C 0.773438 -0.449219 0.773438 -0.417969 0.773438 -0.402344 C 0.773438 -0.351562 0.8125 -0.304688 0.890625 -0.269531 C 0.96875 -0.234375 1.101562 -0.207031 1.285156 -0.191406 L 1.285156 0 L -0.136719 0 L -0.136719 -0.191406 C -0.0820312 -0.195312 -0.0234375 -0.203125 0.046875 -0.214844 C 0.113281 -0.230469 0.164062 -0.25 0.203125 -0.273438 C 0.273438 -0.3125 0.328125 -0.359375 0.375 -0.417969 C 0.421875 -0.472656 0.460938 -0.542969 0.492188 -0.621094 C 0.679688 -1.078125 0.867188 -1.535156 1.058594 -1.996094 C 1.246094 -2.453125 1.457031 -2.960938 1.6875 -3.511719 L 2.175781 -3.511719 C 2.496094 -2.730469 2.742188 -2.109375 2.925781 -1.652344 C 3.105469 -1.195312 3.257812 -0.820312 3.386719 -0.519531 C 3.40625 -0.472656 3.433594 -0.425781 3.46875 -0.386719 C 3.5 -0.347656 3.546875 -0.308594 3.605469 -0.273438 C 3.652344 -0.246094 3.703125 -0.226562 3.765625 -0.214844 C 3.824219 -0.203125 3.878906 -0.195312 3.929688 -0.191406 L 3.929688 0 M 2.109375 -1.402344 L 1.605469 -2.652344 L 1.113281 -1.402344 Z "/>
</g>
<g id="glyph-0-7">
<path d="M 3.824219 -3.273438 C 3.765625 -3.265625 3.710938 -3.257812 3.664062 -3.242188 C 3.613281 -3.226562 3.566406 -3.207031 3.523438 -3.179688 C 3.453125 -3.140625 3.390625 -3.09375 3.335938 -3.03125 C 3.28125 -2.96875 3.230469 -2.902344 3.175781 -2.828125 C 3.070312 -2.671875 2.960938 -2.503906 2.84375 -2.324219 C 2.726562 -2.140625 2.601562 -1.941406 2.464844 -1.722656 C 2.375 -1.585938 2.320312 -1.480469 2.300781 -1.40625 C 2.28125 -1.332031 2.269531 -1.203125 2.269531 -1.019531 L 2.269531 -0.53125 C 2.269531 -0.472656 2.28125 -0.421875 2.304688 -0.375 C 2.324219 -0.332031 2.367188 -0.296875 2.429688 -0.269531 C 2.457031 -0.257812 2.515625 -0.242188 2.605469 -0.222656 C 2.695312 -0.203125 2.761719 -0.195312 2.804688 -0.191406 L 2.804688 0 L 0.871094 0 L 0.871094 -0.191406 C 0.917969 -0.195312 0.984375 -0.199219 1.066406 -0.210938 C 1.152344 -0.21875 1.214844 -0.230469 1.246094 -0.242188 C 1.308594 -0.269531 1.347656 -0.304688 1.371094 -0.347656 C 1.394531 -0.390625 1.402344 -0.445312 1.402344 -0.503906 L 1.402344 -1.117188 C 1.402344 -1.167969 1.402344 -1.214844 1.402344 -1.257812 C 1.398438 -1.296875 1.394531 -1.332031 1.382812 -1.359375 C 1.371094 -1.390625 1.351562 -1.429688 1.324219 -1.476562 C 1.296875 -1.527344 1.261719 -1.589844 1.21875 -1.664062 C 1.09375 -1.882812 0.972656 -2.09375 0.855469 -2.289062 C 0.738281 -2.488281 0.625 -2.671875 0.519531 -2.84375 C 0.464844 -2.933594 0.410156 -3.003906 0.351562 -3.058594 C 0.296875 -3.113281 0.238281 -3.160156 0.179688 -3.195312 C 0.136719 -3.21875 0.0820312 -3.238281 0.0195312 -3.25 C -0.0429688 -3.261719 -0.0976562 -3.269531 -0.148438 -3.273438 L -0.148438 -3.464844 L 1.835938 -3.464844 L 1.835938 -3.273438 C 1.652344 -3.269531 1.53125 -3.257812 1.46875 -3.234375 C 1.40625 -3.214844 1.375 -3.1875 1.375 -3.152344 C 1.375 -3.132812 1.386719 -3.097656 1.410156 -3.042969 C 1.433594 -2.992188 1.472656 -2.90625 1.535156 -2.796875 C 1.589844 -2.691406 1.671875 -2.542969 1.777344 -2.359375 C 1.882812 -2.171875 2.011719 -1.957031 2.160156 -1.707031 C 2.46875 -2.195312 2.683594 -2.539062 2.796875 -2.734375 C 2.914062 -2.929688 2.972656 -3.046875 2.972656 -3.089844 C 2.972656 -3.144531 2.9375 -3.1875 2.867188 -3.21875 C 2.800781 -3.246094 2.691406 -3.265625 2.539062 -3.273438 L 2.539062 -3.464844 L 3.824219 -3.464844 Z "/>
</g>
<g id="glyph-0-8">
<path d="M 3.238281 -2.582031 L 3.054688 -2.582031 C 3.007812 -2.710938 2.925781 -2.84375 2.808594 -2.980469 C 2.695312 -3.113281 2.578125 -3.195312 2.464844 -3.21875 C 2.417969 -3.230469 2.347656 -3.234375 2.261719 -3.238281 C 2.175781 -3.242188 2.101562 -3.242188 2.046875 -3.242188 L 1.542969 -3.242188 L 1.542969 -1.90625 L 1.898438 -1.90625 C 1.988281 -1.90625 2.070312 -1.917969 2.144531 -1.9375 C 2.21875 -1.960938 2.285156 -2 2.34375 -2.0625 C 2.382812 -2.097656 2.417969 -2.164062 2.457031 -2.257812 C 2.496094 -2.351562 2.519531 -2.433594 2.53125 -2.503906 L 2.71875 -2.503906 L 2.71875 -1.058594 L 2.53125 -1.058594 C 2.523438 -1.128906 2.496094 -1.214844 2.457031 -1.316406 C 2.417969 -1.421875 2.378906 -1.492188 2.34375 -1.53125 C 2.289062 -1.589844 2.226562 -1.628906 2.152344 -1.652344 C 2.078125 -1.671875 1.996094 -1.683594 1.898438 -1.683594 L 1.542969 -1.683594 L 1.542969 -0.6875 C 1.542969 -0.582031 1.550781 -0.5 1.566406 -0.4375 C 1.582031 -0.378906 1.609375 -0.332031 1.652344 -0.296875 C 1.695312 -0.265625 1.75 -0.246094 1.820312 -0.238281 C 1.890625 -0.226562 1.988281 -0.222656 2.109375 -0.222656 C 2.167969 -0.222656 2.234375 -0.222656 2.3125 -0.226562 C 2.394531 -0.226562 2.464844 -0.230469 2.523438 -0.238281 C 2.59375 -0.246094 2.65625 -0.257812 2.714844 -0.277344 C 2.777344 -0.292969 2.820312 -0.316406 2.847656 -0.347656 C 2.925781 -0.425781 3.015625 -0.546875 3.113281 -0.710938 C 3.210938 -0.875 3.273438 -0.996094 3.304688 -1.078125 L 3.484375 -1.078125 L 3.417969 0 L 0.167969 0 L 0.167969 -0.191406 C 0.214844 -0.195312 0.277344 -0.199219 0.355469 -0.210938 C 0.433594 -0.21875 0.488281 -0.230469 0.519531 -0.242188 C 0.582031 -0.269531 0.625 -0.304688 0.644531 -0.34375 C 0.664062 -0.382812 0.675781 -0.433594 0.675781 -0.496094 L 0.675781 -2.9375 C 0.675781 -3 0.667969 -3.046875 0.648438 -3.085938 C 0.632812 -3.121094 0.589844 -3.15625 0.519531 -3.1875 C 0.476562 -3.207031 0.417969 -3.226562 0.34375 -3.242188 C 0.265625 -3.257812 0.207031 -3.269531 0.167969 -3.273438 L 0.167969 -3.464844 L 3.238281 -3.464844 Z "/>
</g>
</g>
</defs>
<g fill="rgb(100%, 98.039216%, 39.607843%)" fill-opacity="1">
<use xlink:href="#glyph-0-0" x="30" y="24.584961"/>
<use xlink:href="#glyph-0-1" x="34" y="24.584961"/>
<use xlink:href="#glyph-0-2" x="38" y="24.584961"/>
<use xlink:href="#glyph-0-3" x="42" y="24.584961"/>
<use xlink:href="#glyph-0-4" x="47" y="24.584961"/>
<use xlink:href="#glyph-0-5" x="48" y="24.584961"/>
<use xlink:href="#glyph-0-6" x="51" y="24.584961"/>
<use xlink:href="#glyph-0-7" x="55" y="24.584961"/>
<use xlink:href="#glyph-0-8" x="59" y="24.584961"/>
<use xlink:href="#glyph-0-2" x="63" y="24.584961"/>
</g>
</svg>
