<?xml version="1.0" encoding="UTF-8"?>
<svg xmlns="http://www.w3.org/2000/svg" xmlns:xlink="http://www.w3.org/1999/xlink" width="1080" height="1920" viewBox="0 0 1080 1920">
<defs>
<g>
<g id="glyph-0-0">
<path d="M 3.007812 -2.777344 L 1.972656 0 L 0.996094 0 L 0.0117188 -2.777344 L 0.929688 -2.777344 L 1.410156 -1.066406 C 1.464844 -0.871094 1.496094 -0.707031 1.503906 -0.574219 L 1.515625 -0.574219 C 1.527344 -0.699219 1.5625 -0.859375 1.617188 -1.050781 L 2.109375 -2.777344 Z "/>
</g>
<g id="glyph-0-1">
<path d="M 2.671875 0 L 1.859375 0 L 1.859375 -0.398438 L 1.851562 -0.398438 C 1.664062 -0.0859375 1.386719 0.0664062 1.023438 0.0664062 C 0.753906 0.0664062 0.542969 -0.0078125 0.386719 -0.160156 C 0.230469 -0.3125 0.15625 -0.519531 0.15625 -0.773438 C 0.15625 -1.3125 0.472656 -1.625 1.113281 -1.707031 L 1.867188 -1.808594 C 1.867188 -2.109375 1.703125 -2.261719 1.371094 -2.261719 C 1.042969 -2.261719 0.726562 -2.164062 0.429688 -1.96875 L 0.429688 -2.613281 C 0.546875 -2.675781 0.710938 -2.726562 0.917969 -2.773438 C 1.125 -2.824219 1.3125 -2.847656 1.484375 -2.847656 C 2.277344 -2.847656 2.671875 -2.449219 2.671875 -1.660156 L 2.671875 0 M 1.867188 -1.128906 L 1.867188 -1.316406 L 1.363281 -1.25 C 1.082031 -1.214844 0.945312 -1.089844 0.945312 -0.875 C 0.945312 -0.777344 0.976562 -0.695312 1.046875 -0.632812 C 1.113281 -0.570312 1.207031 -0.539062 1.320312 -0.539062 C 1.480469 -0.539062 1.613281 -0.59375 1.714844 -0.707031 C 1.816406 -0.816406 1.867188 -0.957031 1.867188 -1.128906 M 2.101562 -3.21875 L 1.488281 -3.21875 L 0.636719 -4.09375 L 1.398438 -4.09375 Z "/>
</g>
<g id="glyph-0-2">
</g>
<g id="glyph-0-3">
<path d="M 2.761719 0 L 0.445312 0 L 0.445312 -3.890625 L 1.320312 -3.890625 L 1.320312 -0.710938 L 2.761719 -0.710938 Z "/>
</g>
<g id="glyph-0-4">
<path d="M 3 0 L 2.144531 0 L 2.144531 -0.421875 L 2.132812 -0.421875 C 1.921875 -0.0976562 1.636719 0.0664062 1.28125 0.0664062 C 0.640625 0.0664062 0.316406 -0.320312 0.316406 -1.101562 L 0.316406 -2.777344 L 1.171875 -2.777344 L 1.171875 -1.175781 C 1.171875 -0.785156 1.328125 -0.589844 1.636719 -0.589844 C 1.792969 -0.589844 1.914062 -0.640625 2.007812 -0.75 C 2.101562 -0.859375 2.144531 -1.003906 2.144531 -1.1875 L 2.144531 -2.777344 L 3 -2.777344 Z "/>
</g>
<g id="glyph-0-5">
<path d="M 2.671875 0 L 1.859375 0 L 1.859375 -0.398438 L 1.851562 -0.398438 C 1.664062 -0.0859375 1.386719 0.0664062 1.023438 0.0664062 C 0.753906 0.0664062 0.542969 -0.0078125 0.386719 -0.160156 C 0.230469 -0.3125 0.15625 -0.519531 0.15625 -0.773438 C 0.15625 -1.3125 0.472656 -1.625 1.113281 -1.707031 L 1.867188 -1.808594 C 1.867188 -2.109375 1.703125 -2.261719 1.371094 -2.261719 C 1.042969 -2.261719 0.726562 -2.164062 0.429688 -1.96875 L 0.429688 -2.613281 C 0.546875 -2.675781 0.710938 -2.726562 0.917969 -2.773438 C 1.125 -2.824219 1.3125 -2.847656 1.484375 -2.847656 C 2.277344 -2.847656 2.671875 -2.449219 2.671875 -1.660156 L 2.671875 0 M 1.867188 -1.128906 L 1.867188 -1.316406 L 1.363281 -1.25 C 1.082031 -1.214844 0.945312 -1.089844 0.945312 -0.875 C 0.945312 -0.777344 0.976562 -0.695312 1.046875 -0.632812 C 1.113281 -0.570312 1.207031 -0.539062 1.320312 -0.539062 C 1.480469 -0.539062 1.613281 -0.59375 1.714844 -0.707031 C 1.816406 -0.816406 1.867188 -0.957031 1.867188 -1.128906 M 2.507812 -3.21875 L 1.949219 -3.21875 L 1.519531 -3.726562 L 1.121094 -3.21875 L 0.558594 -3.21875 L 1.195312 -4.097656 L 1.871094 -4.097656 L 2.507812 -3.21875 M 1.449219 1.0625 C 1.328125 1.0625 1.226562 1.023438 1.148438 0.953125 C 1.070312 0.878906 1.03125 0.792969 1.03125 0.6875 C 1.03125 0.582031 1.070312 0.492188 1.148438 0.425781 C 1.230469 0.355469 1.328125 0.324219 1.449219 0.324219 C 1.570312 0.324219 1.667969 0.355469 1.746094 0.425781 C 1.824219 0.496094 1.859375 0.582031 1.859375 0.6875 C 1.859375 0.796875 1.824219 0.882812 1.746094 0.953125 C 1.667969 1.027344 1.570312 1.0625 1.449219 1.0625 Z "/>
</g>
<g id="glyph-0-6">
<path d="M 2.039062 -0.03125 C 1.914062 0.0351562 1.722656 0.0664062 1.46875 0.0664062 C 0.863281 0.0664062 0.5625 -0.246094 0.5625 -0.875 L 0.5625 -2.144531 L 0.109375 -2.144531 L 0.109375 -2.777344 L 0.5625 -2.777344 L 0.5625 -3.378906 L 1.417969 -3.621094 L 1.417969 -2.777344 L 2.039062 -2.777344 L 2.039062 -2.144531 L 1.417969 -2.144531 L 1.417969 -1.023438 C 1.417969 -0.734375 1.53125 -0.589844 1.761719 -0.589844 C 1.851562 -0.589844 1.945312 -0.613281 2.039062 -0.667969 Z "/>
</g>
<g id="glyph-0-7">
<path d="M 0.179688 -0.0742188 L 0.179688 -0.769531 C 0.320312 -0.683594 0.460938 -0.621094 0.601562 -0.578125 C 0.742188 -0.535156 0.875 -0.515625 1 -0.515625 C 1.148438 -0.515625 1.269531 -0.535156 1.359375 -0.578125 C 1.445312 -0.621094 1.488281 -0.683594 1.488281 -0.769531 C 1.488281 -0.820312 1.46875 -0.867188 1.429688 -0.902344 C 1.390625 -0.941406 1.339844 -0.972656 1.277344 -1 C 1.214844 -1.027344 1.144531 -1.050781 1.070312 -1.070312 C 0.996094 -1.09375 0.925781 -1.117188 0.855469 -1.144531 C 0.746094 -1.1875 0.648438 -1.230469 0.566406 -1.277344 C 0.480469 -1.328125 0.410156 -1.382812 0.355469 -1.445312 C 0.296875 -1.507812 0.253906 -1.582031 0.222656 -1.664062 C 0.195312 -1.75 0.179688 -1.847656 0.179688 -1.960938 C 0.179688 -2.117188 0.214844 -2.25 0.28125 -2.363281 C 0.347656 -2.476562 0.4375 -2.566406 0.550781 -2.636719 C 0.664062 -2.710938 0.792969 -2.761719 0.941406 -2.796875 C 1.085938 -2.828125 1.238281 -2.847656 1.394531 -2.847656 C 1.515625 -2.847656 1.640625 -2.835938 1.769531 -2.816406 C 1.894531 -2.796875 2.019531 -2.769531 2.144531 -2.734375 L 2.144531 -2.074219 C 2.035156 -2.136719 1.917969 -2.183594 1.792969 -2.214844 C 1.671875 -2.246094 1.550781 -2.261719 1.429688 -2.261719 C 1.375 -2.261719 1.320312 -2.257812 1.269531 -2.246094 C 1.222656 -2.238281 1.175781 -2.222656 1.140625 -2.203125 C 1.101562 -2.183594 1.070312 -2.160156 1.050781 -2.132812 C 1.027344 -2.101562 1.015625 -2.066406 1.015625 -2.027344 C 1.015625 -1.980469 1.035156 -1.933594 1.066406 -1.898438 C 1.097656 -1.863281 1.140625 -1.832031 1.195312 -1.804688 C 1.246094 -1.777344 1.304688 -1.753906 1.367188 -1.734375 C 1.433594 -1.714844 1.496094 -1.691406 1.558594 -1.671875 C 1.675781 -1.632812 1.777344 -1.589844 1.871094 -1.539062 C 1.960938 -1.492188 2.039062 -1.4375 2.105469 -1.375 C 2.171875 -1.3125 2.222656 -1.238281 2.257812 -1.152344 C 2.292969 -1.066406 2.3125 -0.964844 2.3125 -0.847656 C 2.3125 -0.683594 2.277344 -0.542969 2.203125 -0.425781 C 2.132812 -0.3125 2.039062 -0.214844 1.917969 -0.140625 C 1.800781 -0.0703125 1.664062 -0.015625 1.507812 0.0195312 C 1.355469 0.0507812 1.195312 0.0664062 1.027344 0.0664062 C 0.722656 0.0664062 0.441406 0.0195312 0.179688 -0.0742188 Z "/>
</g>
<g id="glyph-0-8">
<path d="M 1.683594 0.0664062 C 1.222656 0.0664062 0.859375 -0.0625 0.59375 -0.320312 C 0.328125 -0.582031 0.195312 -0.933594 0.195312 -1.378906 C 0.195312 -1.835938 0.332031 -2.195312 0.609375 -2.457031 C 0.882812 -2.714844 1.253906 -2.847656 1.722656 -2.847656 C 2.183594 -2.847656 2.546875 -2.714844 2.808594 -2.457031 C 3.070312 -2.195312 3.203125 -1.855469 3.203125 -1.425781 C 3.203125 -0.964844 3.066406 -0.601562 2.796875 -0.332031 C 2.523438 -0.0664062 2.15625 0.0664062 1.683594 0.0664062 M 1.707031 -2.1875 C 1.503906 -2.1875 1.347656 -2.121094 1.234375 -1.980469 C 1.121094 -1.839844 1.066406 -1.644531 1.066406 -1.390625 C 1.066406 -0.855469 1.28125 -0.589844 1.710938 -0.589844 C 2.121094 -0.589844 2.328125 -0.863281 2.328125 -1.410156 C 2.328125 -1.929688 2.121094 -2.1875 1.707031 -2.1875 M 3.695312 -4.382812 L 2.976562 -3.714844 L 2.445312 -3.714844 L 2.933594 -4.382812 L 3.695312 -4.382812 M 2.695312 -3.308594 L 2.148438 -3.308594 L 1.738281 -3.679688 L 1.355469 -3.308594 L 0.8125 -3.308594 L 1.425781 -3.984375 L 2.078125 -3.984375 Z "/>
</g>
<g id="glyph-0-9">
<path d="M 1.21875 0 L 0.359375 0 L 0.359375 -4.113281 L 1.21875 -4.113281 Z "/>
</g>
<g id="glyph-0-10">
<path d="M 2.828125 -2.433594 C 3.078125 -2.175781 3.203125 -1.839844 3.203125 -1.425781 C 3.203125 -0.964844 3.066406 -0.601562 2.796875 -0.332031 C 2.523438 -0.0664062 2.15625 0.0664062 1.683594 0.0664062 C 1.222656 0.0664062 0.859375 -0.0625 0.59375 -0.320312 C 0.328125 -0.582031 0.195312 -0.933594 0.195312 -1.378906 C 0.195312 -1.835938 0.332031 -2.195312 0.609375 -2.457031 C 0.882812 -2.714844 1.253906 -2.847656 1.722656 -2.847656 C 1.84375 -2.847656 1.984375 -2.832031 2.136719 -2.804688 C 2.242188 -2.785156 2.339844 -2.777344 2.4375 -2.777344 C 2.757812 -2.777344 2.917969 -2.90625 2.917969 -3.160156 C 2.917969 -3.25 2.898438 -3.351562 2.867188 -3.460938 L 3.386719 -3.460938 C 3.429688 -3.335938 3.449219 -3.21875 3.449219 -3.105469 C 3.449219 -2.699219 3.242188 -2.472656 2.828125 -2.433594 M 1.707031 -2.1875 C 1.503906 -2.1875 1.347656 -2.121094 1.234375 -1.980469 C 1.121094 -1.839844 1.066406 -1.644531 1.066406 -1.390625 C 1.066406 -0.855469 1.28125 -0.589844 1.710938 -0.589844 C 2.121094 -0.589844 2.328125 -0.863281 2.328125 -1.410156 C 2.328125 -1.929688 2.121094 -2.1875 1.707031 -2.1875 M 2.613281 -4.09375 L 1.761719 -3.21875 L 1.144531 -3.21875 L 1.851562 -4.09375 Z "/>
</g>
<g id="glyph-0-11">
<path d="M 3.042969 0 L 2.1875 0 L 2.1875 -1.542969 C 2.1875 -1.972656 2.035156 -2.1875 1.726562 -2.1875 C 1.578125 -2.1875 1.457031 -2.132812 1.363281 -2.019531 C 1.265625 -1.90625 1.21875 -1.757812 1.21875 -1.585938 L 1.21875 0 L 0.359375 0 L 0.359375 -2.777344 L 1.21875 -2.777344 L 1.21875 -2.339844 L 1.230469 -2.339844 C 1.433594 -2.675781 1.730469 -2.847656 2.121094 -2.847656 C 2.738281 -2.847656 3.042969 -2.464844 3.042969 -1.699219 Z "/>
</g>
<g id="glyph-0-12">
<path d="M 1.355469 -3.890625 L 1.25 -1.210938 L 0.554688 -1.210938 L 0.457031 -3.890625 L 1.355469 -3.890625 M 0.910156 0.0625 C 0.765625 0.0625 0.648438 0.0195312 0.554688 -0.0703125 C 0.460938 -0.15625 0.414062 -0.261719 0.414062 -0.386719 C 0.414062 -0.519531 0.460938 -0.625 0.554688 -0.707031 C 0.648438 -0.792969 0.769531 -0.832031 0.910156 -0.832031 C 1.054688 -0.832031 1.175781 -0.789062 1.265625 -0.707031 C 1.359375 -0.621094 1.40625 -0.515625 1.40625 -0.386719 C 1.40625 -0.257812 1.359375 -0.148438 1.269531 -0.0664062 C 1.175781 0.0195312 1.058594 0.0625 0.910156 0.0625 Z "/>
</g>
</g>
</defs>
<g fill="rgb(100%, 100%, 100%)" fill-opacity="1">
<use xlink:href="#glyph-0-0" x="30" y="25.995117"/>
<use xlink:href="#glyph-0-1" x="33" y="25.995117"/>
<use xlink:href="#glyph-0-2" x="36" y="25.995117"/>
<use xlink:href="#glyph-0-3" x="38" y="25.995117"/>
<use xlink:href="#glyph-0-4" x="41" y="25.995117"/>
<use xlink:href="#glyph-0-5" x="44" y="25.995117"/>
<use xlink:href="#glyph-0-6" x="47" y="25.995117"/>
<use xlink:href="#glyph-0-2" x="49" y="25.995117"/>
<use xlink:href="#glyph-0-7" x="51" y="25.995117"/>
<use xlink:href="#glyph-0-8" x="53" y="25.995117"/>
<use xlink:href="#glyph-0-2" x="56" y="25.995117"/>
<use xlink:href="#glyph-0-9" x="58" y="25.995117"/>
<use xlink:href="#glyph-0-10" x="60" y="25.995117"/>
<use xlink:href="#glyph-0-11" x="63" y="25.995117"/>
<use xlink:href="#glyph-0-12" x="66" y="25.995117"/>
</g>
</svg>
