<?xml version="1.0" encoding="UTF-8"?>
<svg xmlns="http://www.w3.org/2000/svg" xmlns:xlink="http://www.w3.org/1999/xlink" width="1080" height="1920" viewBox="0 0 1080 1920">
<defs>
<g>
<g id="glyph-0-0">
<path d="M 6.324219 -2.050781 C 6.566406 -1.886719 6.769531 -1.671875 6.933594 -1.402344 C 7.097656 -1.128906 7.179688 -0.796875 7.179688 -0.402344 C 7.179688 0.359375 6.8125 0.992188 6.085938 1.496094 C 5.355469 2 4.417969 2.253906 3.273438 2.253906 C 2.449219 2.253906 1.75 2.078125 1.179688 1.722656 C 0.605469 1.371094 0.316406 0.941406 0.316406 0.425781 C 0.316406 0.136719 0.410156 -0.105469 0.59375 -0.304688 C 0.78125 -0.503906 1.027344 -0.605469 1.335938 -0.605469 C 1.65625 -0.605469 1.921875 -0.519531 2.128906 -0.34375 C 2.332031 -0.171875 2.433594 0.0585938 2.433594 0.347656 C 2.433594 0.546875 2.398438 0.769531 2.328125 1.015625 C 2.257812 1.261719 2.203125 1.445312 2.160156 1.5625 C 2.25 1.601562 2.367188 1.632812 2.507812 1.65625 C 2.652344 1.679688 2.816406 1.691406 3.007812 1.691406 C 3.246094 1.691406 3.476562 1.652344 3.703125 1.574219 C 3.925781 1.496094 4.125 1.371094 4.289062 1.195312 C 4.464844 1.011719 4.601562 0.796875 4.695312 0.550781 C 4.792969 0.304688 4.839844 -0.0195312 4.839844 -0.425781 C 4.839844 -0.660156 4.820312 -0.878906 4.777344 -1.085938 C 4.734375 -1.292969 4.65625 -1.476562 4.539062 -1.628906 C 4.425781 -1.785156 4.269531 -1.90625 4.074219 -1.992188 C 3.875 -2.082031 3.625 -2.125 3.320312 -2.125 L 2.546875 -2.125 L 2.546875 -2.863281 L 3.09375 -2.863281 C 3.605469 -2.863281 3.976562 -3.015625 4.207031 -3.316406 C 4.4375 -3.621094 4.554688 -4.082031 4.554688 -4.707031 C 4.554688 -5.207031 4.441406 -5.582031 4.21875 -5.832031 C 4 -6.082031 3.679688 -6.207031 3.257812 -6.207031 C 3.101562 -6.207031 2.960938 -6.199219 2.84375 -6.179688 C 2.726562 -6.160156 2.605469 -6.128906 2.484375 -6.078125 C 2.527344 -5.941406 2.582031 -5.746094 2.648438 -5.5 C 2.714844 -5.25 2.746094 -5.039062 2.746094 -4.863281 C 2.746094 -4.574219 2.648438 -4.34375 2.449219 -4.175781 C 2.25 -4.003906 1.988281 -3.917969 1.667969 -3.917969 C 1.359375 -3.917969 1.117188 -4.019531 0.9375 -4.21875 C 0.753906 -4.417969 0.664062 -4.660156 0.664062 -4.945312 C 0.664062 -5.449219 0.957031 -5.878906 1.542969 -6.234375 C 2.125 -6.589844 2.859375 -6.769531 3.742188 -6.769531 C 4.351562 -6.769531 4.855469 -6.699219 5.257812 -6.554688 C 5.660156 -6.414062 5.976562 -6.238281 6.207031 -6.03125 C 6.433594 -5.828125 6.59375 -5.609375 6.679688 -5.375 C 6.769531 -5.140625 6.8125 -4.929688 6.8125 -4.742188 C 6.8125 -4.5625 6.773438 -4.359375 6.699219 -4.136719 C 6.625 -3.910156 6.511719 -3.710938 6.367188 -3.539062 C 6.1875 -3.332031 5.953125 -3.152344 5.664062 -3.003906 C 5.375 -2.851562 5.039062 -2.738281 4.652344 -2.65625 L 4.652344 -2.558594 C 4.914062 -2.542969 5.203125 -2.492188 5.507812 -2.410156 C 5.816406 -2.328125 6.085938 -2.210938 6.324219 -2.050781 Z "/>
</g>
</g>
</defs>
<g fill="rgb(27.058824%, 76.862745%, 85.098039%)" fill-opacity="1">
<use xlink:href="#glyph-0-0" x="30" y="31.462891"/>
</g>
</svg>
