<?xml version="1.0" encoding="UTF-8"?>
<svg xmlns="http://www.w3.org/2000/svg" xmlns:xlink="http://www.w3.org/1999/xlink" width="1080" height="1920" viewBox="0 0 1080 1920">
<defs>
<g>
<g id="glyph-0-0">
<path d="M 2.265625 0 L 0.207031 0 L 0.207031 -0.34375 C 0.300781 -0.433594 0.398438 -0.519531 0.503906 -0.59375 C 0.613281 -0.667969 0.71875 -0.734375 0.832031 -0.792969 C 0.949219 -0.855469 1.046875 -0.910156 1.128906 -0.960938 C 1.207031 -1.007812 1.269531 -1.058594 1.316406 -1.113281 C 1.363281 -1.164062 1.394531 -1.214844 1.414062 -1.273438 C 1.433594 -1.332031 1.441406 -1.398438 1.441406 -1.46875 C 1.441406 -1.628906 1.40625 -1.746094 1.328125 -1.820312 C 1.253906 -1.894531 1.152344 -1.929688 1.027344 -1.929688 C 0.988281 -1.929688 0.949219 -1.929688 0.914062 -1.921875 C 0.878906 -1.917969 0.84375 -1.90625 0.804688 -1.890625 C 0.824219 -1.835938 0.84375 -1.777344 0.859375 -1.714844 C 0.878906 -1.652344 0.886719 -1.585938 0.886719 -1.511719 C 0.886719 -1.421875 0.855469 -1.351562 0.789062 -1.296875 C 0.726562 -1.242188 0.644531 -1.21875 0.542969 -1.21875 C 0.449219 -1.21875 0.371094 -1.25 0.316406 -1.308594 C 0.261719 -1.371094 0.230469 -1.449219 0.230469 -1.535156 C 0.230469 -1.691406 0.320312 -1.824219 0.5 -1.9375 C 0.679688 -2.050781 0.898438 -2.105469 1.160156 -2.105469 C 1.457031 -2.105469 1.699219 -2.054688 1.882812 -1.953125 C 2.066406 -1.851562 2.160156 -1.683594 2.160156 -1.457031 C 2.160156 -1.339844 2.136719 -1.242188 2.085938 -1.171875 C 2.039062 -1.097656 1.964844 -1.035156 1.871094 -0.980469 C 1.785156 -0.933594 1.691406 -0.890625 1.589844 -0.859375 C 1.484375 -0.828125 1.375 -0.796875 1.257812 -0.769531 C 1.132812 -0.738281 1.023438 -0.703125 0.929688 -0.667969 C 0.835938 -0.632812 0.753906 -0.589844 0.683594 -0.542969 L 0.683594 -0.519531 L 2.265625 -0.519531 Z "/>
</g>
<g id="glyph-0-1">
<path d="M 1.796875 0 L 0.230469 0 L 0.230469 -0.144531 C 0.269531 -0.148438 0.328125 -0.152344 0.410156 -0.164062 C 0.492188 -0.171875 0.550781 -0.183594 0.582031 -0.195312 C 0.617188 -0.207031 0.648438 -0.226562 0.671875 -0.257812 C 0.691406 -0.289062 0.703125 -0.332031 0.703125 -0.382812 L 0.703125 -1.585938 L 0.222656 -1.585938 L 0.222656 -1.769531 L 0.328125 -1.769531 C 0.4375 -1.769531 0.53125 -1.78125 0.613281 -1.804688 C 0.691406 -1.828125 0.757812 -1.855469 0.8125 -1.890625 C 0.867188 -1.925781 0.910156 -1.964844 0.945312 -2 C 0.980469 -2.039062 1.007812 -2.074219 1.03125 -2.101562 L 1.363281 -2.101562 C 1.359375 -2.019531 1.355469 -1.921875 1.351562 -1.8125 C 1.347656 -1.703125 1.347656 -1.605469 1.347656 -1.515625 L 1.347656 -0.40625 C 1.347656 -0.359375 1.355469 -0.320312 1.375 -0.285156 C 1.394531 -0.253906 1.421875 -0.226562 1.460938 -0.207031 C 1.492188 -0.195312 1.546875 -0.179688 1.625 -0.167969 C 1.703125 -0.15625 1.761719 -0.148438 1.796875 -0.144531 Z "/>
</g>
<g id="glyph-0-2">
<path d="M 2.324219 -0.964844 C 2.324219 -0.503906 2.167969 -0.125 1.855469 0.167969 C 1.546875 0.460938 1.121094 0.640625 0.582031 0.710938 L 0.539062 0.523438 L 0.738281 0.488281 C 0.894531 0.445312 1.023438 0.390625 1.125 0.320312 C 1.230469 0.25 1.3125 0.167969 1.378906 0.0742188 C 1.445312 -0.0195312 1.5 -0.121094 1.535156 -0.226562 C 1.570312 -0.332031 1.597656 -0.441406 1.613281 -0.554688 C 1.503906 -0.457031 1.394531 -0.394531 1.289062 -0.363281 C 1.1875 -0.332031 1.070312 -0.316406 0.9375 -0.316406 C 0.828125 -0.316406 0.726562 -0.335938 0.632812 -0.378906 C 0.539062 -0.421875 0.457031 -0.480469 0.386719 -0.554688 C 0.316406 -0.632812 0.257812 -0.722656 0.21875 -0.832031 C 0.179688 -0.9375 0.160156 -1.054688 0.160156 -1.179688 C 0.160156 -1.445312 0.261719 -1.667969 0.46875 -1.84375 C 0.671875 -2.019531 0.929688 -2.105469 1.234375 -2.105469 C 1.570312 -2.105469 1.832031 -2.003906 2.03125 -1.796875 C 2.226562 -1.589844 2.324219 -1.3125 2.324219 -0.964844 M 1.632812 -0.859375 C 1.632812 -0.878906 1.632812 -0.898438 1.632812 -0.925781 C 1.632812 -0.949219 1.636719 -0.976562 1.636719 -1 C 1.636719 -1.304688 1.597656 -1.535156 1.527344 -1.695312 C 1.453125 -1.859375 1.359375 -1.9375 1.242188 -1.9375 C 1.128906 -1.9375 1.039062 -1.878906 0.96875 -1.753906 C 0.898438 -1.632812 0.863281 -1.453125 0.863281 -1.222656 C 0.863281 -1.019531 0.898438 -0.859375 0.96875 -0.738281 C 1.039062 -0.617188 1.136719 -0.558594 1.25 -0.558594 C 1.324219 -0.558594 1.394531 -0.574219 1.453125 -0.601562 C 1.515625 -0.632812 1.574219 -0.6875 1.628906 -0.765625 C 1.628906 -0.773438 1.628906 -0.78125 1.628906 -0.796875 C 1.628906 -0.8125 1.632812 -0.835938 1.632812 -0.859375 Z "/>
</g>
</g>
</defs>
<g fill="rgb(100%, 100%, 100%)" fill-opacity="1">
<use xlink:href="#glyph-0-0" x="30" y="23.56543"/>
<use xlink:href="#glyph-0-1" x="32" y="23.56543"/>
<use xlink:href="#glyph-0-2" x="34" y="23.56543"/>
</g>
</svg>
