<?xml version="1.0" encoding="UTF-8"?>
<svg xmlns="http://www.w3.org/2000/svg" xmlns:xlink="http://www.w3.org/1999/xlink" width="1080" height="1920" viewBox="0 0 1080 1920">
<defs>
<g>
<g id="glyph-0-0">
<path d="M 0.296875 -0.105469 C 0.523438 -0.105469 0.667969 -0.136719 0.730469 -0.199219 C 0.792969 -0.261719 0.828125 -0.375 0.828125 -0.550781 L 0.828125 -2.261719 C 0.828125 -2.371094 0.8125 -2.449219 0.789062 -2.496094 C 0.761719 -2.542969 0.71875 -2.566406 0.648438 -2.566406 C 0.613281 -2.566406 0.558594 -2.554688 0.480469 -2.527344 C 0.433594 -2.511719 0.367188 -2.492188 0.285156 -2.457031 L 0.285156 -2.570312 L 1.410156 -3.054688 L 1.488281 -3.054688 L 1.488281 -0.523438 C 1.488281 -0.359375 1.511719 -0.25 1.566406 -0.191406 C 1.617188 -0.132812 1.75 -0.105469 1.964844 -0.105469 L 1.964844 0 L 0.296875 0 Z "/>
</g>
<g id="glyph-0-1">
<path d="M 0.800781 -0.988281 C 0.804688 -0.625 0.832031 -0.382812 0.882812 -0.253906 C 0.933594 -0.128906 1.007812 -0.0664062 1.109375 -0.0664062 C 1.238281 -0.0664062 1.328125 -0.183594 1.371094 -0.417969 C 1.394531 -0.546875 1.410156 -0.734375 1.410156 -0.988281 L 1.410156 -2.003906 C 1.410156 -2.363281 1.382812 -2.609375 1.332031 -2.734375 C 1.28125 -2.863281 1.207031 -2.925781 1.105469 -2.925781 C 1.007812 -2.925781 0.929688 -2.859375 0.878906 -2.734375 C 0.828125 -2.605469 0.800781 -2.363281 0.800781 -2.003906 Z M 0.101562 -1.476562 C 0.101562 -2.007812 0.21875 -2.417969 0.457031 -2.707031 C 0.644531 -2.9375 0.863281 -3.054688 1.105469 -3.054688 C 1.386719 -3.054688 1.621094 -2.914062 1.8125 -2.628906 C 2.007812 -2.335938 2.105469 -1.96875 2.105469 -1.527344 C 2.105469 -1.003906 1.996094 -0.597656 1.773438 -0.304688 C 1.589844 -0.0625 1.367188 0.0625 1.105469 0.0625 C 0.925781 0.0625 0.769531 0.0078125 0.640625 -0.101562 C 0.511719 -0.207031 0.402344 -0.34375 0.308594 -0.515625 C 0.230469 -0.65625 0.175781 -0.820312 0.144531 -1.007812 C 0.125 -1.117188 0.113281 -1.273438 0.101562 -1.476562 Z "/>
</g>
<g id="glyph-0-2">
<path d="M 0.0742188 -0.101562 C 0.546875 -0.613281 0.855469 -0.972656 1 -1.171875 C 1.21875 -1.476562 1.332031 -1.746094 1.332031 -1.980469 C 1.332031 -2.117188 1.289062 -2.246094 1.203125 -2.367188 C 1.117188 -2.488281 0.988281 -2.550781 0.808594 -2.550781 C 0.652344 -2.550781 0.523438 -2.496094 0.414062 -2.386719 C 0.355469 -2.328125 0.304688 -2.25 0.261719 -2.148438 L 0.140625 -2.148438 C 0.238281 -2.457031 0.375 -2.683594 0.546875 -2.832031 C 0.71875 -2.980469 0.914062 -3.054688 1.132812 -3.054688 C 1.339844 -3.054688 1.523438 -2.984375 1.691406 -2.839844 C 1.859375 -2.699219 1.945312 -2.488281 1.945312 -2.214844 C 1.945312 -2.070312 1.90625 -1.921875 1.824219 -1.769531 C 1.746094 -1.617188 1.613281 -1.453125 1.429688 -1.273438 L 0.75 -0.628906 L 0.75 -0.589844 L 1.382812 -0.589844 C 1.601562 -0.589844 1.746094 -0.609375 1.8125 -0.644531 C 1.878906 -0.679688 1.949219 -0.777344 2.015625 -0.933594 L 2.121094 -0.933594 L 1.921875 0 L 0.0742188 0 Z "/>
</g>
</g>
</defs>
<g fill="rgb(100%, 100%, 100%)" fill-opacity="1">
<use xlink:href="#glyph-0-0" x="30" y="23.333008"/>
<use xlink:href="#glyph-0-0" x="32" y="23.333008"/>
<use xlink:href="#glyph-0-1" x="34" y="23.333008"/>
<use xlink:href="#glyph-0-2" x="36" y="23.333008"/>
</g>
</svg>
